<?xml version="1.0" encoding="UTF-8"?>
<svg id="Camada_2" xmlns="http://www.w3.org/2000/svg" viewBox="0 0 172.21 193.43">
  <g id="Camada_1-2" data-name="Camada_1" >
    <g fill="white">
      <path d="M154.95,112.66c2.2.44,4.26.65,6.16,1.31,1.76.61,3.41,1.61,4.99,2.62,1.05.67,2.1,1.51,2.8,2.52,1.09,1.58,2.1,3.21,2.45,5.23.51,2.93.84,5.84.83,8.82-.02,15.42,0,30.84.03,46.26,0,3.18-.99,6-2.93,8.51-1.37,1.78-3.19,2.89-5.13,3.98-2.38,1.34-4.8,1.06-7.27,1.06-21.09.04-42.18.06-63.26.13-3.57.01-7.15.36-10.72.34-22.51-.12-45.01-.31-67.51-.47-1.04,0-2.08.07-3.11.05-2.48-.04-4.53-1.19-6.38-2.68-1.27-1.03-2.55-2.15-3.5-3.46-.77-1.07-1.01-2.51-1.56-3.76-1.24-2.84-.7-5.82-.7-8.73,0-20.81-.41-41.64.26-62.43.51-15.67.04-31.33.52-46.99.06-2.12.51-4.47,1.53-6.28,1.52-2.69,3.75-4.82,7.03-5.72,4.45-1.22,8.89-1.09,13.41-.81,3.86.24,7.74.16,11.62.14,1.97-.01,3.64.79,5.14,1.87,1.58,1.14,2.96,2.54,4.42,3.84,1.17,1.04,2.26,2.17,3.49,3.12.49.38,1.3.5,1.95.49,2.29-.07,4.58-.25,6.87-.38.63-.03,1.26,0,1.88,0,.07-.11.14-.23.2-.34-1.28-1.18-2.54-2.37-3.84-3.52-1.06-.94-2.16-1.82-3.23-2.74-1.07-.93-2.13-1.87-3.18-2.82-1.83-1.63-3.69-3.24-5.46-4.93-1.16-1.11-2.55-2.07-3.05-3.74-.08-.26-.25-.51-.26-.77-.17-4.54-.52-9.09-.4-13.62.07-2.71.74-5.44,1.45-8.08.48-1.79,1.44-3.47,2.32-5.12.98-1.82,2.04-3.6,3.22-5.29.68-.96,1.66-1.71,2.53-2.53,1.12-1.06,2.23-2.13,3.4-3.12.52-.44,1.16-.76,1.79-1.05,2.74-1.28,5.54-2.25,8.54-2.96,3.26-.77,6.43-.49,9.62-.52,11.58-.11,23.16-.07,34.75,0,1.75.01,3.52.44,5.25.83,1.46.33,2.94.74,4.29,1.38,1.6.76,3.11,1.74,4.55,2.76,1.23.87,2.39,1.88,3.46,2.94,1.17,1.17,2.28,2.41,3.26,3.73.87,1.19,1.65,2.49,2.25,3.83.85,1.9,1.45,3.92,2.25,5.85,1.98,4.81,1.65,9.86,1.52,14.88-.05,2.07-.2,4.14-.39,6.2-.12,1.38-.73,2.56-1.82,3.47-1.7,1.43-3.41,2.85-5.07,4.33-.94.84-1.73,1.85-2.67,2.68-1.1.97-2.32,1.79-3.42,2.76-1.13.99-2.16,2.1-3.26,3.13-.74.7-1.52,1.35-2.29,2.02.05.14.11.27.16.41,1.18,0,2.35,0,3.53,0,9.07,0,18.13-.08,27.2.02,2.26.02,4.65.24,6.73,1.02,2.22.84,4.64,1.73,5.98,4.07.81,1.42,1.8,2.74,2.66,4.14.17.27.09.7.09,1.06,0,10.07.08,20.13-.06,30.2-.03,2.06-1.03,4.03-2.7,5.46-.86.73-1.45,1.81-2.72,2.04-.22.04-.45.62-.48.97-.07.83-.02,1.67-.02,2.41ZM82.35,185.08c-1.07-.32-1.99-.73-2.93-.84-3.45-.39-6.83-.87-10.14-2.12-3.32-1.26-6.71-2.33-9.84-4.04-1.02-.56-2.17-.92-3.12-1.57-2.02-1.39-3.99-2.85-5.89-4.4-1.61-1.31-3.12-2.75-4.59-4.22-1.16-1.17-2.21-2.46-3.25-3.73-1.47-1.8-3.06-3.53-4.31-5.48-1.46-2.28-2.71-4.71-3.86-7.16-.9-1.91-1.52-3.95-2.24-5.94-.28-.76-.48-1.56-.7-2.34-.46-1.63-.97-3.26-1.36-4.91-.26-1.11-.42-2.26-.46-3.4-.11-2.69-.2-5.39-.15-8.09.07-3.57-.04-7.15,1.17-10.64.85-2.43,1.01-5.04,2.12-7.47.92-2.01,1.4-4.21,2.64-6.14,1.47-2.29,2.71-4.74,4.06-7.11.32-.57.64-1.16,1.06-1.65.99-1.14,2.05-2.21,3.06-3.33.87-.96,1.63-2.03,2.58-2.91,1.7-1.58,3.45-3.12,5.28-4.55,1.74-1.36,3.62-2.54,5.39-3.86.23-.17.36-.9.2-1.07-.7-.75-1.5-1.4-2.29-2.06-1.8-1.52-3.6-3.03-5.42-4.53-1.09-.9-2.23-1.74-3.28-2.67-1.12-1-2.17-2.09-3.26-3.12-.64-.61-1.29-1.23-1.96-1.81-1.38-1.2-2.74-2.45-4.2-3.56-.77-.58-1.73-1.24-2.62-1.25-6.63-.14-13.26-.14-19.89-.16-1.54,0-3.14.08-4.38,1.1-1.62,1.32-2.39,3.16-2.4,5.24-.16,25.87-.32,51.74-.46,77.61-.06,11.82-.07,23.65-.11,35.47-.02,4.36,1.88,6.54,5.28,8.07.31.14.77-.01,1.15-.09.56-.12,1.11-.41,1.66-.42,4.23-.05,8.46-.06,12.7-.07,1.36,0,2.37-.7,3.24-1.65,1.45-1.59,2.05-3.54,2.02-5.62-.03-1.96.16-3.89-.42-5.89-.35-1.19.4-2.7.67-4.07.07-.34.21-.66.29-1,.31-1.33,1.85-2.46,3.05-2.29,1.94.28,3.23,1.63,4.63,2.77,1.16.95,2.18,2.07,3.3,3.07,1.2,1.07,2.43,2.1,3.65,3.14.96.82,1.95,1.62,2.9,2.45,1.33,1.16,2.63,2.34,3.95,3.51,1.21,1.08,2.4,2.19,3.64,3.24.96.81,2.09,1.45,2.91,2.38.5.57.96.65,1.58.65,6.07,0,12.14,0,18.21,0,.35,0,.7-.04,1.12-.07v-1.4ZM89.55,186.55c.87,0,1.62,0,2.37,0,9.07,0,18.13.12,27.2-.04,9.07-.16,18.16.53,27.22-.53,2.17-.25,4.39-.16,6.58-.05,2.26.12,4.6-.63,6.78.53.12.07.34.06.47,0,.98-.49,2.13-.81,2.89-1.54,1.57-1.5,2.7-3.31,2.67-5.64-.14-13.01-.25-26.02-.37-39.04-.03-3.59-.02-7.19-.08-10.78-.03-1.96-.1-3.83-1.18-5.69-1.3-2.23-3.55-2.78-5.51-3.73-1.3-.63-3.01-.45-4.54-.57-1.03-.07-2.08.03-3.11-.04-.44-.03-.95-.19-1.27-.47-1.09-.95-1.85-2.13-1.87-3.61-.04-2.75-.05-5.51,0-8.27.03-1.59,1.71-3.31,3.26-3.5,2.43-.3,3.12-1.13,3.12-3.6-.02-8.99-.04-17.97,0-26.96,0-1.3-.53-2.45-1.44-3.04-1.68-1.1-3.48-1.93-5.67-1.93-29.83.06-59.67.04-89.5.04-.36,0-.73-.03-1.07.07-.12.04-.28.52-.21.59.78.75,1.59,1.47,2.4,2.18,1.54,1.36,3.09,2.72,4.66,4.05.26.22.72.42.99.34,1.09-.33,2.12-.85,3.22-1.17,2.61-.76,5.2-1.65,7.86-2.09,3.27-.55,6.6-.86,9.92-.99,4.33-.17,8.61.31,12.82,1.54,2.53.74,5.15,1.08,7.64,2.14,2.78,1.18,5.65,2.07,8.16,3.85,1.62,1.15,3.45,2,5.09,3.12,1.23.83,2.24,1.98,3.46,2.81,2.58,1.76,4.67,4.03,6.63,6.4,1.96,2.38,3.97,4.77,5.56,7.39,1.69,2.78,3.08,5.78,4.29,8.81,1.02,2.54,1.61,5.26,2.34,7.92.26.94.4,1.92.56,2.89.36,2.16.97,4.31.98,6.48.03,3.34.25,6.65-.47,10.03-.75,3.54-.85,7.22-2.26,10.65-.84,2.04-1.38,4.21-2.31,6.2-1.11,2.36-2.53,4.57-3.74,6.88-1.78,3.42-4.35,6.24-6.95,9-1.99,2.11-4.19,4.08-6.48,5.86-2.18,1.69-4.56,3.14-6.94,4.55-1.81,1.08-3.7,2.06-5.65,2.87-2.12.88-4.3,1.65-6.52,2.21-2.51.64-5.1,1.01-7.66,1.47-1.44.26-2.9.45-4.34.68v1.75ZM59.56,39.3c0,3.65,0,7.12,0,10.59,0,1.57-.39,3.16,1.52,4.23,1.3.73,2.22,2.12,3.37,3.15,1.07.95,2.33,1.71,3.3,2.74.91.97,1.89,1.25,3.15,1.25,10.18-.03,20.37-.14,30.55.07,2.53.05,3.83-1.45,5.46-2.64,1.17-.85,2.13-2,3.22-2.97,1.06-.94,2.18-1.8,3.25-2.73,1.07-.93,2.1-1.92,3.18-2.84,1.34-1.15,2.74-2.25,4.08-3.4,1.37-1.17,2.76-2.33,4.06-3.58.73-.7,1.73-1.51,1.86-2.38.37-2.55.4-5.15.48-7.73.09-2.82,0-5.62-1.06-8.31-.68-1.72-1.12-3.54-1.76-5.28-1.09-2.93-2.92-5.42-5.23-7.46-1.64-1.45-3.49-2.83-5.49-3.66-2.14-.88-4.56-1.47-6.87-1.5-13.26-.15-26.52-.12-39.78-.08-3.16,0-6.28.51-9.05,2.21-1.49.91-2.96,1.89-4.28,3.02-.98.84-1.79,1.92-2.53,2.99-1.06,1.53-2.15,3.08-2.93,4.76-.78,1.69-1.33,3.51-1.75,5.33-.42,1.83-.74,3.73-.78,5.61-.05,2.66.23,5.32.3,7.98.03,1.33.05,2.45,1.39,3.4,1.99,1.41,3.7,3.2,5.7,4.98.04-.71.1-1.21.1-1.71,0-5.99,0-11.98-.03-17.98-.01-2.38.4-4.5,1.64-6.68,1.7-3,4.06-5.09,7.05-6.35,1.82-.77,3.98-1.02,6-1.04,12.74-.09,25.48,0,38.22-.09,2.95-.02,5.36,1.18,7.69,2.67,1.09.7,1.94,1.8,2.87,2.75,1.6,1.62,2.67,3.64,2.88,5.83.26,2.69.45,5.39-.98,8.03-1.22,2.26-2.41,4.28-4.55,5.9-2.33,1.76-4.95,2.5-7.57,2.58-7.94.24-15.9.23-23.84.03-6.36-.16-12.77.86-19.09-.63-.87-.2-1.72-.47-2.57-.71-.35-.1-.69-.21-1.2-.36ZM36.03,127.82c.22,3.02-.26,6.04.59,9.09.82,2.93,1.18,5.98,2.41,8.81.78,1.79,1.48,3.63,2.42,5.33,1.22,2.21,2.62,4.33,4.01,6.44.81,1.24,1.67,2.48,2.68,3.56,1.63,1.73,3.32,3.43,5.13,4.96,2.02,1.69,4.13,3.3,6.34,4.73,2.15,1.39,4.38,2.75,6.75,3.69,2.87,1.14,5.88,2.11,8.92,2.64,3.59.63,7.26.82,10.91.99,4.21.2,8.39-.28,12.49-1.29.74-.18,1.44-.51,2.17-.74,1.34-.42,2.73-.68,4.01-1.24,1.76-.76,3.46-1.69,5.14-2.62,1.9-1.06,3.86-2.06,5.6-3.36,2.22-1.66,4.29-3.53,6.3-5.43,1.38-1.3,2.65-2.75,3.81-4.25,1.25-1.61,2.4-3.3,3.44-5.04,1.24-2.08,2.42-4.2,3.42-6.4.88-1.93,1.64-3.95,2.13-6,.65-2.69,1.3-5.44,1.4-8.18.26-6.94.68-13.94-2-20.62-.88-2.18-1.5-4.48-2.52-6.59-1.13-2.33-2.48-4.58-3.93-6.73-1.37-2.03-2.88-3.99-4.53-5.79-1.77-1.92-3.67-3.76-5.71-5.39-2.02-1.62-4.19-3.1-6.45-4.35-2.63-1.45-5.36-2.79-8.19-3.78-2.84-.99-5.81-1.74-8.78-2.16-3.18-.45-6.42-.43-9.64-.51-1.22-.03-2.46.15-3.67.34-1.97.3-3.95.58-5.88,1.05-2.08.51-4.1,1.25-6.16,1.84-2.47.7-4.78,1.77-6.96,3.08-1.64.98-3.23,2.06-4.77,3.19-1.77,1.3-3.48,2.69-5.17,4.09-2.95,2.45-5.19,5.55-7.44,8.6-1.47,2-2.71,4.21-3.79,6.45-.97,2.01-1.6,4.2-2.35,6.31-.28.78-.53,1.57-.69,2.38-.5,2.58-1.06,5.16-1.39,7.76-.21,1.69-.04,3.43-.04,5.15Z"/>
      <path d="M85.77,171.67c-1.84,0-3.68.13-5.5-.04-1.67-.15-3.34-.5-4.96-.97-2.02-.58-4.02-1.25-5.94-2.1-2.07-.92-4.06-2.04-6.04-3.16-1.56-.89-3.06-1.9-4.57-2.88-.26-.17-.45-.47-.68-.69-1.86-1.75-3.74-3.48-5.57-5.26-.45-.44-.75-1.03-1.11-1.56-.87-1.27-1.8-2.51-2.58-3.83-1.1-1.86-2.22-3.73-3.1-5.7-.83-1.85-1.44-3.81-1.99-5.78-.47-1.69-.47-3.52-1.1-5.13-.53-1.35-.46-2.68-.67-4.01-.09-.57-.56-1.1-.95-1.58-.86-1.06-.88-2.04-.02-3.08.69-.83,1-1.76,1.1-2.89.16-1.76.62-3.5,1-5.23.32-1.44.63-2.89,1.1-4.29.55-1.65,1.15-3.31,1.93-4.86,1.13-2.24,2.28-4.51,3.73-6.55,1.39-1.95,3.12-3.67,4.78-5.41,1.49-1.55,2.99-3.14,4.68-4.45,1.63-1.27,3.49-2.25,5.3-3.28,1.69-.96,3.41-1.88,5.17-2.68,1.12-.51,2.34-.79,3.53-1.11,2.09-.56,4.18-1.1,6.29-1.56.85-.18,1.75-.07,2.62-.18.44-.06.88-.27,1.26-.5.54-.33.98-.83,1.54-1.1,1.64-.8,2.9-.06,4.07,1.08.28.28.74.45,1.14.52,1.16.2,2.34.28,3.51.48,1.28.23,2.56.48,3.81.82,1.41.39,2.81.84,4.18,1.34,1.53.57,3.09,1.1,4.51,1.88,2.3,1.26,4.6,2.56,6.7,4.11,1.82,1.35,3.38,3.06,5.02,4.64.94.91,1.91,1.8,2.69,2.84,1.17,1.56,2.23,3.21,3.24,4.87,1.03,1.68,2.01,3.4,2.89,5.16.55,1.1.91,2.29,1.28,3.46.56,1.76,1.17,3.51,1.55,5.3.36,1.73.42,3.53.69,5.28.08.51.33,1.08.69,1.44,1.3,1.31,1.39,3.37,0,4.69-.57.55-.64,1.12-.75,1.83-.39,2.63-.74,5.28-1.38,7.86-.57,2.31-1.4,4.57-2.31,6.78-.5,1.23-1.43,2.27-2.11,3.43-.56.95-.94,2.02-1.59,2.89-1.29,1.73-2.67,3.41-4.11,5.02-.87.98-1.9,1.81-2.89,2.68-1.43,1.25-2.8,2.59-4.36,3.65-1.98,1.35-4.11,2.49-6.22,3.64-2.2,1.2-4.65,1.74-6.97,2.6-2.12.79-4.3.99-6.44,1.38-1.97.36-4.06.08-6.09.08,0,.02,0,.05,0,.07ZM110.48,98.71c-.72-.49-1.61-1.08-2.49-1.69-.22-.15-.44-.3-.64-.48-2.35-2.17-5.32-3.23-8.19-4.42-1.58-.65-3.29-1.04-4.98-1.36-1.95-.38-3.92-.65-5.9-.79-3.72-.28-7.34.26-10.99,1.06-2.66.59-5.13,1.56-7.53,2.7-1.71.81-3.32,1.87-4.88,2.94-1.67,1.14-3.38,2.29-4.82,3.7-1.68,1.65-3.14,3.53-4.56,5.41-1.13,1.49-2.17,3.07-3.03,4.73-.89,1.73-1.69,3.55-2.18,5.42-.67,2.57-1.29,5.22-1.43,7.86-.3,5.49-.36,11,2.02,16.19.81,1.76,1.38,3.63,2.26,5.35.82,1.59,1.9,3.05,2.88,4.56.18.27.37.54.58.78,1.14,1.28,2.23,2.61,3.44,3.82.93.94,2.01,1.74,3.02,2.61.99.85,1.13.26,1.22-.65.21-2.05-.25-4.13.65-6.18.55-1.24.46-2.78.56-4.19.22-2.96,1.35-5.34,3.81-7.15,1.77-1.31,3.8-1.91,5.76-2.72,1.39-.58,2.87-.9,4.3-1.38,1.18-.4,2.39-.74,3.48-1.32,1.54-.81,3.06-1.69,4.42-2.76,1.07-.84,1.89-2,2.82-3.02.93-1.02,1.96-1.96,2.78-3.06,1.69-2.27,3.29-4.61,4.89-6.95,1.73-2.53,3.42-5.08,5.09-7.64.53-.8.91-1.7,1.45-2.49,1.16-1.72,2.38-3.4,3.57-5.1.82-1.17,1.63-2.35,2.62-3.77ZM115.48,103.69c-.31.24-.61.37-.77.6-.62.94-1.17,1.92-1.79,2.85-1.13,1.69-2.31,3.34-3.44,5.03-.73,1.1-1.4,2.24-2.12,3.35-1.24,1.9-2.5,3.78-3.74,5.68-.4.61-.68,1.3-1.12,1.88-.77,1.01-1.65,1.93-2.43,2.93-.95,1.22-1.79,2.53-2.77,3.72-1.19,1.46-2.42,2.9-3.74,4.24-1.15,1.17-2.34,2.37-3.72,3.22-2.16,1.33-4.43,2.57-6.79,3.51-2.82,1.12-5.79,1.84-8.66,2.82-1.25.43-2.04,1.58-2.29,2.74-.5,2.35-.81,4.75-.96,7.15-.16,2.55-.11,5.11-.03,7.67.02.5.54,1.28,1,1.44,3.45,1.2,6.97,2.18,10.66,2.29.16,0,.31.09.47.09,2.54.06,5.08.26,7.6.12,1.63-.09,3.25-.64,4.85-1.05,1.36-.34,2.75-.64,4.03-1.2,1.63-.71,3.11-1.77,4.74-2.49,2.69-1.18,5-2.88,7.1-4.89,1.02-.97,2.15-1.85,3.03-2.93,1.23-1.52,2.35-3.14,3.37-4.8,1.02-1.66,1.9-3.42,2.77-5.17.47-.95.84-1.97,1.17-2.98.49-1.48,1.13-2.97,1.31-4.49.34-2.91.42-5.86.55-8.79.05-1.11.12-2.28-.14-3.34-.52-2.05-.59-4.16-1.41-6.19-.88-2.17-1.37-4.51-2.61-6.54-1.31-2.15-2.72-4.25-4.13-6.45Z"/>
      <path d="M53.66,121.51c.68-.97.06-2.58.97-4,.79-1.23.89-2.88,1.56-4.21.77-1.53,1.78-2.94,2.78-4.34,1.03-1.46,2.17-2.85,3.26-4.27.13-.18.24-.38.41-.52,1.64-1.33,3.22-2.76,4.95-3.96,2.25-1.54,4.64-2.78,7.28-3.69,2.12-.73,4.16-1.11,6.34-1.1,1.44.01,3.04,1.22,3.46,2.54.28.91-.86,3.12-1.88,3.46-.77.26-1.6.3-2.38.51-1.63.44-3.37.68-4.83,1.46-2.5,1.33-4.9,2.9-7.16,4.6-1.26.95-2.19,2.36-3.22,3.6-1.6,1.91-2.74,4.11-3.77,6.35-.32.7-.43,1.49-.64,2.24-.41,1.44-.74,2.92-1.25,4.32-.45,1.22-2.69,1.81-3.81,1.09-1.27-.81-2.33-2.38-2.06-4.11Z"/>
      <path d="M99.1,157.06c-3.21.09-4.34-2.46-3.44-4.81.3-.78,1.66-1.23,2.62-1.64,1.57-.68,3.13-1.28,4.6-2.24,1.86-1.21,2.84-3.09,4.33-4.54.76-.74,1.75-1.1,2.82-.81,1.28.34,2.07,1.25,2.21,2.55.22,2.03-.68,3.62-2,5.15-1.55,1.8-3.39,3.2-5.39,4.36-1.81,1.05-3.69,2.12-5.77,1.99Z"/>
    </g>
  </g>
</svg>